<svg width="100" height="100" viewBox="0 0 100 100" xmlns="http://www.w3.org/2000/svg">
  <defs>
    <!-- High contrast gradients for better visibility -->
    <radialGradient id="headGradient" cx="0.3" cy="0.3" r="0.8">
      <stop offset="0%" style="stop-color:#2a2a2a;stop-opacity:1" />
      <stop offset="100%" style="stop-color:#000000;stop-opacity:1" />
    </radialGradient>
    <linearGradient id="maskGradient" x1="0%" y1="0%" x2="0%" y2="100%">
      <stop offset="0%" style="stop-color:#ffffff;stop-opacity:1" />
      <stop offset="100%" style="stop-color:#f8f8f8;stop-opacity:1" />
    </linearGradient>
    <radialGradient id="eyeGradient" cx="0.4" cy="0.3" r="0.7">
      <stop offset="0%" style="stop-color:#ffffff;stop-opacity:1" />
      <stop offset="100%" style="stop-color:#f0f0f0;stop-opacity:1" />
    </radialGradient>
  </defs>
  
  <!-- Strong shadow for better contrast -->
  <ellipse cx="52" cy="92" rx="38" ry="8" fill="#000000" opacity="0.4"/>
  
  <!-- Head with stronger contrast -->
  <circle cx="50" cy="50" r="42" fill="url(#headGradient)" stroke="#ffffff" stroke-width="2"/>
  
  <!-- Main ninja mask with high contrast -->
  <ellipse cx="50" cy="50" rx="38" ry="14" fill="url(#maskGradient)" stroke="#666666" stroke-width="1"/>
  <ellipse cx="50" cy="50" rx="35" ry="11" fill="#000000"/>
  
  <!-- Eyes with stronger definition -->
  <ellipse cx="35" cy="50" rx="9" ry="11" fill="url(#eyeGradient)" stroke="#999999" stroke-width="1"/>
  <ellipse cx="65" cy="50" rx="9" ry="11" fill="url(#eyeGradient)" stroke="#999999" stroke-width="1"/>
  
  <!-- Pupils with better contrast -->
  <ellipse cx="35" cy="52" rx="5" ry="7" fill="#000000"/>
  <ellipse cx="65" cy="52" rx="5" ry="7" fill="#000000"/>
  
  <!-- Enhanced eye reflections -->
  <ellipse cx="32" cy="47" rx="2" ry="3" fill="#ffffff" opacity="1"/>
  <ellipse cx="62" cy="47" rx="2" ry="3" fill="#ffffff" opacity="1"/>
  
  <!-- More defined eyebrows -->
  <path d="M23 34 Q30 30 42 36 Q35 42 26 44 Q22 38 23 34 Z" fill="#000000"/>
  <path d="M77 34 Q70 30 58 36 Q65 42 74 44 Q78 38 77 34 Z" fill="#000000"/>
  
  <!-- Side mask details with better visibility -->
  <ellipse cx="13" cy="50" rx="4" ry="10" fill="#1a1a1a" stroke="#666666" stroke-width="1"/>
  <ellipse cx="87" cy="50" rx="4" ry="10" fill="#1a1a1a" stroke="#666666" stroke-width="1"/>
  
  <!-- Enhanced forehead symbol -->
  <path d="M50 22 L56 32 L50 29 L44 32 Z" fill="#ffffff" stroke="#cccccc" stroke-width="0.5"/>
  <circle cx="50" cy="26" r="2" fill="#ffffff" stroke="#cccccc" stroke-width="0.5"/>
  
  <!-- Decorative elements with better contrast -->
  <path d="M10 22 Q18 16 24 26 Q16 36 10 22 Z" fill="#000000" opacity="1"/>
  <path d="M90 22 Q82 16 76 26 Q84 36 90 22 Z" fill="#000000" opacity="1"/>
  
  <!-- Definition lines with higher visibility -->
  <path d="M13 40 Q50 36 87 40" stroke="#ffffff" stroke-width="1" fill="none" opacity="0.8"/>
  <path d="M13 60 Q50 64 87 60" stroke="#ffffff" stroke-width="1" fill="none" opacity="0.8"/>
  
  <!-- Additional outline for better definition -->
  <circle cx="50" cy="50" r="43" fill="none" stroke="#ffffff" stroke-width="0.5" opacity="0.6"/>
</svg>